<svg clip-rule="evenodd" fill-rule="evenodd" height="2495" stroke-linejoin="round" stroke-miterlimit="2" viewBox="23.435 24.447 541.402 541.402" width="2500" xmlns="http://www.w3.org/2000/svg"><circle cx="294.136" cy="295.148" fill="#015196" r="270.701"/><path d="m294.439 43.449c-139.232 0-252.27 113.038-252.27 252.27 0 139.231 113.038 252.269 252.27 252.269 139.231 0 252.27-113.038 252.27-252.269 0-139.232-113.039-252.27-252.27-252.27zm0 10.417c133.482 0 241.853 108.37 241.853 241.853 0 133.482-108.371 241.853-241.853 241.853s-241.853-108.371-241.853-241.853c0-133.483 108.371-241.853 241.853-241.853z" fill="#fff"/><path d="m294.04 407.276c.862 0 4.798 3.735 4.798 5.668s-3.266 5.903-4.578 5.903c-1.313 0-4.842-3.222-4.842-5.868 0-2.647 3.962-5.703 4.622-5.703zm-6.019-3.745c.908.243 1.733.152 1.26-1.996-.473-2.149-6.787-15.339-16.974-15.64-10.186-.3-10.298 7.164-10.344 9.945s1.866 9.383 8.931 9.325c0 0 5.155-.377 5.435-3.312 0 0 .631-1.953-1.815-1.98s-2.171-1.383-2.368-3.22c-.197-1.838 1.437-3.191 3.941-3.057 2.505.133 7.884 3.024 10.434 7.756 0 0-.2 1.723 1.5 2.179zm12.215 0c-.908.243-1.733.152-1.26-1.996.473-2.149 6.787-15.339 16.973-15.64 10.186-.3 10.298 7.164 10.344 9.945.047 2.781-1.865 9.383-8.931 9.325 0 0-5.154-.377-5.435-3.312 0 0-.63-1.953 1.816-1.98s2.17-1.383 2.367-3.22c.197-1.838-1.436-3.191-3.941-3.057-2.504.133-7.884 3.024-10.433 7.756 0 0 .2 1.723-1.5 2.179zm3.306-22.615c0-9.397-7.233-19.944-9.103-22.568 0 0-.441-.538-.858 0-.417.537-8.604 12.764-8.604 22.456 0 9.691 4.739 8.659 6.471 15.683 0 0 1.727 7.044 2.592 7.044s1.658-3.734 2.849-6.659c1.19-2.925 6.653-10.798 6.653-15.956z" fill="#b49755"/><path d="m305.623 497.801c-3.531 3.965-6.889 4.755-10.683 4.701-11.264-.16-12.99-10.663-12.964-12.511.027-1.892.642-12.337 13.318-12.337 1.897 0 3.674.27 5.331.728a11.157 11.157 0 0 1 4.428 2.384l-1.052 4.072-2.095-.016c-.852-.852-2.145-3.296-6.631-3.36-7.913-.112-8.641 7.148-8.658 8.328-.018 1.269.291 8.79 8.412 8.905 1.125.016 6.861-1.036 6.861-3.376l-.051-2.466-7.493-.082.067-4.195 11.268.138zm6.424-20.409 18.865-2.454.49 3.765-14.577 1.896.747 5.747 7.049-.75.489 3.765-7.048.75.824 6.341 15.302-1.99.489 3.765-19.589 2.548zm26.067-4.268 9.631-3.068c2.234-.712 4.303-1.353 5.87-1.369 5.924-.059 7.534 3.586 7.873 4.648 1.897 5.956-2.764 8.27-2.764 8.27l6.519 7.052-4.096 2.321-6.08-7.075c-3.423-1.088-5.48.319-7.889 1.083l2.894 9.125-4.998 1.501zm-106.74-1.425-7.091-2.633 1.516-4.084 18.362 6.817-1.516 4.084-7.187-2.668-6.65 18.323-4.095-1.486zm25.61 13.433 7.721 1.855-.712 3.282-7.879-1.967zm108.79-21.195 3.982-2.102 13.144 9.511.048-16.277 3.848-2.095 10.997 21.088-3.31 1.726-6.995-13.375-.75.248-.06 15.641-12.956-8.748-.584.345 6.944 13.399-3.31 1.727zm-165.241-11.29 4.995 2.551 2.225 20.974.06.03 8.035-15.733 3.769 1.924-10.816 21.178-4.786-2.444-2.174-21.589-.06-.031-8.295 16.243-3.768-1.925zm145.494 28.874 3.919-1.248c.492-.157 8.272-1.219 6.926-5.554-1.197-3.856-7.892-.546-8.385-.389l-4.271 1.361zm51.818-36.434 4.208-3.095 23.152 13.933-5.416 2.609-5.376-3.232-7.969 5.98 1.483 5.925-4.153 4.085zm-207.102.894 3.59 2.469-13.731 19.962-3.589-2.469zm-15.519-12.999 3.985 3.379-8.201 25.746-3.79-4.665 1.9-5.978-7.66-6.37-5.423 2.813-4.934-3.095zm227.73 14.811 2.391 8.862 5.223-3.866zm10.47-14.009 3.17-2.989 16.621 17.629-3.17 2.989zm-239.651 4.795-8.069 4.376 4.97 4.186zm249.662-13.698 3.823-4.104 20.779 3.612.046-.049-12.927-12.042 2.885-3.097 17.399 16.209-3.663 3.932-21.357-3.83-.046.05 13.345 12.431-2.885 3.096zm-264.89 1.691c-1.519-5.968-6.892-11.653-9.7-12.004-.681-.085-3.358.42-1.285 3.577 6.544 9.963 7.414 10.609 6.834 15.246-.513 4.103-4.519 5.245-7.193 4.91-8.869-1.109-15.138-14.828-14.621-16.628l4.022-2.467c2.151 6.699 7.11 13.443 10.414 13.857 1.385.173 2.137-1.261 2.287-2.077.287-1.564-1.903-4.472-2.553-5.309-3.216-4.136-5.584-6.598-5.212-11.824.185-2.608 2.83-5.094 6.211-4.671 6.554.82 12.081 6.031 14.818 15.232zm-32.471-282.035 20.212-21.877c21.114-22.853 33.021-12.61 35.751-10.088 2.686 2.482 19.251 16.656-3.337 39.244l-8.761 9.483 14.136 12.772-11.989 12.977zm320.129 6.908c-5.55-14.15-20.452-26.427-27.436-26.427-1.695 0-8.098 2.058-2.052 9.154 19.08 22.396 21.411 23.711 21.411 35.246 0 10.205-9.461 14.232-16.113 14.232-22.061 0-41.619-31.678-40.907-36.246l9.095-7.275c7.322 15.749 21.535 30.747 29.754 30.747 3.445 0 4.848-3.743 4.964-5.787.223-3.919-6.03-10.371-7.879-12.22-9.145-9.145-15.699-14.449-16.39-27.364-.346-6.443 5.37-13.344 13.78-13.344 16.304 0 31.437 11.07 40.96 32.765zm-234.215-66.382 13.21-4.76 49.015 53.598-15.95 2.583-11.386-12.436-25.104 9.32-.708 16.403-13.822 7.353zm-53.193 70.556c9.475-11.705 24.959-23.565 15.771-31.103-9.872-8.098-29.59 17.815-29.077 19.017zm214.585-71.534 13.122 5.377-24.093 58.801-13.122-5.377zm-93.358-13.614h27.4c6.355 0 12.227.046 16.285 1.289 15.35 4.698 15.632 17.913 15.632 20.918 0 16.858-16.468 20.181-16.468 20.181l16.551 26.342-17.077-3.674-13.683-21.839h-14.991v19.171h-13.649zm-56.935 25.471-.611 24.665 16.413-5.974zm70.584 6.007h11.151c1.4 0 21.408 2.391 21.408-10.078 0-10.89-19.008-9.809-20.408-9.809h-12.151z" fill="#fff" fill-rule="nonzero"/><path d="m278.455 154.145s-1.451 135.949-104.554 216.335c0 0 7.005 31.937 55.081 53.242 0 0-11.578-86.627 64.599-86.949 69.094-.292 67.018 74.606 67.396 82.484 0 0 28.061-6.886 55.526-47.777-53.202-53.196-106.249-115.562-106.566-217.525z" fill="#ef2f3a"/><g fill="#fff"><path d="m244.833 293.806h99.63l1.936 5.115h-105.636z"/><path d="m294.493 146.94c-82.215 0-148.963 66.748-148.963 148.962 0 82.215 66.748 148.963 148.963 148.963 82.214 0 148.962-66.748 148.962-148.963 0-82.214-66.748-148.962-148.962-148.962zm0 10.417c76.465 0 138.545 62.08 138.545 138.545 0 76.466-62.08 138.546-138.545 138.546-76.466 0-138.546-62.08-138.546-138.546 0-76.465 62.08-138.545 138.546-138.545z"/><path d="m306.56 158.301c.262 18.709 1.417 68.878 29.367 125.082 0 0 22.45 46.712 76 90.702l9.797-14.435s-34.407-17.425-72.625-79.144c0 0-34.615-58.165-34.811-123.597 0 0-7.99-17.317-7.728 1.392zm-24.43 0c-.262 18.709-1.418 68.878-29.368 125.082 0 0-22.45 46.712-76 90.702l-9.797-14.435s34.408-17.425 72.625-79.144c0 0 34.616-58.165 34.811-123.597 0 0 7.991-17.317 7.729 1.392zm9.131 181.937c-.054-.192.277-6.017.46-6.214 44.298-.916 82.887 30.865 75.039 81.707 0 0-27.787 15.166-24.813 10.993 1.528-2.145 3.93-5.076 6.075-9.549 14.357-29.934-5.357-75.454-56.761-76.937z"/><path d="m296.961 340.238c.054-.192-.277-6.017-.46-6.214-44.298-.916-82.887 30.865-75.039 81.707 0 0 27.787 15.166 24.813 10.993-1.528-2.145-3.93-5.076-6.075-9.549-14.357-29.934 5.357-75.454 56.761-76.937z"/></g></svg>